<mxfile host="app.diagrams.net" modified="2023-06-05T15:42:18.325Z" agent="Mozilla/5.0 (Windows NT 10.0; Win64; x64) AppleWebKit/537.36 (KHTML, like Gecko) Chrome/114.0.0.0 Safari/537.36" etag="gy_xOSsdDcbSGVNI92Fi" version="21.3.7" type="device">
  <diagram name="Σελίδα-1" id="CsE6YNoTUhBlBd0UO_HM">
    <mxGraphModel dx="800" dy="811" grid="1" gridSize="10" guides="1" tooltips="1" connect="1" arrows="1" fold="1" page="1" pageScale="1" pageWidth="1169" pageHeight="827" math="0" shadow="0">
      <root>
        <mxCell id="0" />
        <mxCell id="1" parent="0" />
        <mxCell id="swWhOMBi9cK1xBVYy2Jj-81" value="" style="shape=umlLifeline;perimeter=lifelinePerimeter;whiteSpace=wrap;html=1;container=1;dropTarget=0;collapsible=0;recursiveResize=0;outlineConnect=0;portConstraint=eastwest;newEdgeStyle={&quot;edgeStyle&quot;:&quot;elbowEdgeStyle&quot;,&quot;elbow&quot;:&quot;vertical&quot;,&quot;curved&quot;:0,&quot;rounded&quot;:0};participant=umlBoundary;" parent="1" vertex="1">
          <mxGeometry x="1030" y="319.1" width="50" height="1120.9" as="geometry" />
        </mxCell>
        <mxCell id="IK8IRVJrMrATGc9QWltt-21" value="" style="html=1;points=[];perimeter=orthogonalPerimeter;" parent="1" vertex="1">
          <mxGeometry x="1050" y="615" width="10" height="55" as="geometry" />
        </mxCell>
        <mxCell id="swWhOMBi9cK1xBVYy2Jj-110" value="ALT2" style="shape=umlFrame;whiteSpace=wrap;html=1;pointerEvents=0;" parent="1" vertex="1">
          <mxGeometry x="610" y="840" width="1040" height="539" as="geometry" />
        </mxCell>
        <mxCell id="swWhOMBi9cK1xBVYy2Jj-114" value="ALT3" style="shape=umlFrame;whiteSpace=wrap;html=1;pointerEvents=0;" parent="1" vertex="1">
          <mxGeometry x="710" y="933" width="860" height="237" as="geometry" />
        </mxCell>
        <mxCell id="swWhOMBi9cK1xBVYy2Jj-97" value="ALT1" style="shape=umlFrame;whiteSpace=wrap;html=1;pointerEvents=0;" parent="1" vertex="1">
          <mxGeometry x="710" y="490" width="380" height="257" as="geometry" />
        </mxCell>
        <mxCell id="swWhOMBi9cK1xBVYy2Jj-80" value="" style="shape=umlLifeline;perimeter=lifelinePerimeter;whiteSpace=wrap;html=1;container=1;dropTarget=0;collapsible=0;recursiveResize=0;outlineConnect=0;portConstraint=eastwest;newEdgeStyle={&quot;edgeStyle&quot;:&quot;elbowEdgeStyle&quot;,&quot;elbow&quot;:&quot;vertical&quot;,&quot;curved&quot;:0,&quot;rounded&quot;:0};participant=umlBoundary;" parent="1" vertex="1">
          <mxGeometry x="1151" y="320" width="50" height="1120" as="geometry" />
        </mxCell>
        <mxCell id="swWhOMBi9cK1xBVYy2Jj-82" value="" style="shape=umlLifeline;perimeter=lifelinePerimeter;whiteSpace=wrap;html=1;container=1;dropTarget=0;collapsible=0;recursiveResize=0;outlineConnect=0;portConstraint=eastwest;newEdgeStyle={&quot;edgeStyle&quot;:&quot;elbowEdgeStyle&quot;,&quot;elbow&quot;:&quot;vertical&quot;,&quot;curved&quot;:0,&quot;rounded&quot;:0};participant=umlBoundary;" parent="1" vertex="1">
          <mxGeometry x="762.5" y="320" width="50" height="1120" as="geometry" />
        </mxCell>
        <mxCell id="swWhOMBi9cK1xBVYy2Jj-84" value="" style="shape=umlLifeline;perimeter=lifelinePerimeter;whiteSpace=wrap;html=1;container=1;dropTarget=0;collapsible=0;recursiveResize=0;outlineConnect=0;portConstraint=eastwest;newEdgeStyle={&quot;edgeStyle&quot;:&quot;elbowEdgeStyle&quot;,&quot;elbow&quot;:&quot;vertical&quot;,&quot;curved&quot;:0,&quot;rounded&quot;:0};participant=umlEntity;size=40;" parent="1" vertex="1">
          <mxGeometry x="911" y="319.1" width="40" height="1120.9" as="geometry" />
        </mxCell>
        <mxCell id="swWhOMBi9cK1xBVYy2Jj-85" value="" style="shape=umlLifeline;perimeter=lifelinePerimeter;whiteSpace=wrap;html=1;container=1;dropTarget=0;collapsible=0;recursiveResize=0;outlineConnect=0;portConstraint=eastwest;newEdgeStyle={&quot;edgeStyle&quot;:&quot;elbowEdgeStyle&quot;,&quot;elbow&quot;:&quot;vertical&quot;,&quot;curved&quot;:0,&quot;rounded&quot;:0};participant=umlBoundary;" parent="1" vertex="1">
          <mxGeometry x="1391" y="320" width="50" height="1120" as="geometry" />
        </mxCell>
        <mxCell id="swWhOMBi9cK1xBVYy2Jj-86" value="" style="shape=umlLifeline;perimeter=lifelinePerimeter;whiteSpace=wrap;html=1;container=1;dropTarget=0;collapsible=0;recursiveResize=0;outlineConnect=0;portConstraint=eastwest;newEdgeStyle={&quot;edgeStyle&quot;:&quot;elbowEdgeStyle&quot;,&quot;elbow&quot;:&quot;vertical&quot;,&quot;curved&quot;:0,&quot;rounded&quot;:0};participant=umlEntity;" parent="1" vertex="1">
          <mxGeometry x="1271" y="320" width="40" height="1120" as="geometry" />
        </mxCell>
        <mxCell id="IK8IRVJrMrATGc9QWltt-18" value="" style="html=1;points=[];perimeter=orthogonalPerimeter;" parent="1" vertex="1">
          <mxGeometry x="783" y="400" width="10" height="850" as="geometry" />
        </mxCell>
        <mxCell id="IK8IRVJrMrATGc9QWltt-20" value="" style="html=1;points=[];perimeter=orthogonalPerimeter;" parent="1" vertex="1">
          <mxGeometry x="926" y="450" width="10" height="910" as="geometry" />
        </mxCell>
        <mxCell id="IK8IRVJrMrATGc9QWltt-22" value="" style="html=1;points=[];perimeter=orthogonalPerimeter;" parent="1" vertex="1">
          <mxGeometry x="1171" y="870" width="10" height="50" as="geometry" />
        </mxCell>
        <mxCell id="IK8IRVJrMrATGc9QWltt-23" value="" style="html=1;points=[];perimeter=orthogonalPerimeter;" parent="1" vertex="1">
          <mxGeometry x="1286" y="910" width="10" height="250" as="geometry" />
        </mxCell>
        <mxCell id="IK8IRVJrMrATGc9QWltt-24" value="" style="html=1;points=[];perimeter=orthogonalPerimeter;" parent="1" vertex="1">
          <mxGeometry x="1411" y="1040" width="10" height="320" as="geometry" />
        </mxCell>
        <mxCell id="swWhOMBi9cK1xBVYy2Jj-100" value="" style="endArrow=none;dashed=1;html=1;rounded=0;exitX=0.001;exitY=0.361;exitDx=0;exitDy=0;exitPerimeter=0;entryX=1.003;entryY=0.357;entryDx=0;entryDy=0;entryPerimeter=0;strokeWidth=2;" parent="1" source="swWhOMBi9cK1xBVYy2Jj-97" target="swWhOMBi9cK1xBVYy2Jj-97" edge="1">
          <mxGeometry width="50" height="50" relative="1" as="geometry">
            <mxPoint x="1095" y="567" as="sourcePoint" />
            <mxPoint x="1145" y="517" as="targetPoint" />
          </mxGeometry>
        </mxCell>
        <mxCell id="swWhOMBi9cK1xBVYy2Jj-79" value="" style="shape=umlLifeline;perimeter=lifelinePerimeter;whiteSpace=wrap;html=1;container=1;dropTarget=0;collapsible=0;recursiveResize=0;outlineConnect=0;portConstraint=eastwest;newEdgeStyle={&quot;edgeStyle&quot;:&quot;elbowEdgeStyle&quot;,&quot;elbow&quot;:&quot;vertical&quot;,&quot;curved&quot;:0,&quot;rounded&quot;:0};participant=umlActor;" parent="1" vertex="1">
          <mxGeometry x="520" y="320" width="20" height="1120" as="geometry" />
        </mxCell>
        <mxCell id="swWhOMBi9cK1xBVYy2Jj-87" value="chooseDiscount()" style="endArrow=classic;html=1;rounded=0;" parent="1" edge="1">
          <mxGeometry x="-0.6062" y="12" width="50" height="50" relative="1" as="geometry">
            <mxPoint x="529.5" y="800" as="sourcePoint" />
            <mxPoint x="787" y="800" as="targetPoint" />
            <Array as="points">
              <mxPoint x="725" y="800" />
            </Array>
            <mxPoint x="-1" as="offset" />
          </mxGeometry>
        </mxCell>
        <mxCell id="swWhOMBi9cK1xBVYy2Jj-90" value="checkBalance()" style="endArrow=classic;html=1;rounded=0;" parent="1" target="swWhOMBi9cK1xBVYy2Jj-84" edge="1">
          <mxGeometry x="-0.2613" y="13" width="50" height="50" relative="1" as="geometry">
            <mxPoint x="787" y="453" as="sourcePoint" />
            <mxPoint x="1019.5" y="453" as="targetPoint" />
            <Array as="points">
              <mxPoint x="875" y="453" />
            </Array>
            <mxPoint as="offset" />
          </mxGeometry>
        </mxCell>
        <mxCell id="swWhOMBi9cK1xBVYy2Jj-92" value="showDiscPage()" style="endArrow=classic;html=1;rounded=0;" parent="1" source="swWhOMBi9cK1xBVYy2Jj-84" target="swWhOMBi9cK1xBVYy2Jj-82" edge="1">
          <mxGeometry x="-0.2089" y="17" width="50" height="50" relative="1" as="geometry">
            <mxPoint x="995" y="567" as="sourcePoint" />
            <mxPoint x="1045" y="517" as="targetPoint" />
            <Array as="points">
              <mxPoint x="825" y="517" />
            </Array>
            <mxPoint x="-2" y="-7" as="offset" />
          </mxGeometry>
        </mxCell>
        <mxCell id="swWhOMBi9cK1xBVYy2Jj-93" value="showUpdateBalance()" style="endArrow=classic;html=1;rounded=0;" parent="1" edge="1">
          <mxGeometry x="-0.0295" y="9" width="50" height="50" relative="1" as="geometry">
            <mxPoint x="930.5" y="617" as="sourcePoint" />
            <mxPoint x="1054.5" y="617" as="targetPoint" />
            <Array as="points">
              <mxPoint x="945" y="617" />
            </Array>
            <mxPoint as="offset" />
          </mxGeometry>
        </mxCell>
        <mxCell id="swWhOMBi9cK1xBVYy2Jj-94" value="addAmount()" style="endArrow=classic;html=1;rounded=0;" parent="1" edge="1">
          <mxGeometry x="-0.8166" y="12" width="50" height="50" relative="1" as="geometry">
            <mxPoint x="529.5" y="639" as="sourcePoint" />
            <mxPoint x="1054.5" y="639" as="targetPoint" />
            <Array as="points">
              <mxPoint x="865" y="639" />
            </Array>
            <mxPoint as="offset" />
          </mxGeometry>
        </mxCell>
        <mxCell id="swWhOMBi9cK1xBVYy2Jj-96" value="showDiscPage()" style="endArrow=classic;html=1;rounded=0;" parent="1" edge="1">
          <mxGeometry x="0.0255" y="-10" width="50" height="50" relative="1" as="geometry">
            <mxPoint x="930.5" y="718" as="sourcePoint" />
            <mxPoint x="793" y="718" as="targetPoint" />
            <Array as="points">
              <mxPoint x="870" y="718" />
            </Array>
            <mxPoint x="1" as="offset" />
          </mxGeometry>
        </mxCell>
        <mxCell id="swWhOMBi9cK1xBVYy2Jj-98" value="balance&lt;br&gt;enough" style="text;html=1;align=center;verticalAlign=middle;resizable=0;points=[];autosize=1;strokeColor=none;fillColor=none;" parent="1" vertex="1">
          <mxGeometry x="710" y="521.5" width="70" height="40" as="geometry" />
        </mxCell>
        <mxCell id="swWhOMBi9cK1xBVYy2Jj-99" value="balance&amp;nbsp;&lt;br&gt;not&lt;br style=&quot;border-color: var(--border-color);&quot;&gt;enough" style="text;html=1;align=center;verticalAlign=middle;resizable=0;points=[];autosize=1;strokeColor=none;fillColor=none;" parent="1" vertex="1">
          <mxGeometry x="710" y="654" width="70" height="60" as="geometry" />
        </mxCell>
        <mxCell id="swWhOMBi9cK1xBVYy2Jj-101" value="showInputCode()" style="endArrow=classic;html=1;rounded=0;" parent="1" edge="1">
          <mxGeometry x="-0.7272" y="13" width="50" height="50" relative="1" as="geometry">
            <mxPoint x="787" y="871" as="sourcePoint" />
            <mxPoint x="1175.5" y="871" as="targetPoint" />
            <Array as="points">
              <mxPoint x="1005" y="871" />
            </Array>
            <mxPoint as="offset" />
          </mxGeometry>
        </mxCell>
        <mxCell id="swWhOMBi9cK1xBVYy2Jj-102" value="inputCode()" style="endArrow=classic;html=1;rounded=0;" parent="1" edge="1">
          <mxGeometry x="-0.8739" y="8" width="50" height="50" relative="1" as="geometry">
            <mxPoint x="529.25" y="898" as="sourcePoint" />
            <mxPoint x="1175.5" y="898" as="targetPoint" />
            <Array as="points">
              <mxPoint x="925" y="898" />
            </Array>
            <mxPoint x="-1" as="offset" />
          </mxGeometry>
        </mxCell>
        <mxCell id="swWhOMBi9cK1xBVYy2Jj-103" value="checkCode()" style="endArrow=classic;html=1;rounded=0;" parent="1" edge="1">
          <mxGeometry x="-0.0348" y="12" width="50" height="50" relative="1" as="geometry">
            <mxPoint x="1175.5" y="915" as="sourcePoint" />
            <mxPoint x="1290.5" y="915" as="targetPoint" />
            <Array as="points">
              <mxPoint x="1176" y="915" />
            </Array>
            <mxPoint x="1" as="offset" />
          </mxGeometry>
        </mxCell>
        <mxCell id="swWhOMBi9cK1xBVYy2Jj-104" value="calculateCost()" style="endArrow=classic;html=1;rounded=0;" parent="1" edge="1">
          <mxGeometry x="-0.7492" y="-7" width="50" height="50" relative="1" as="geometry">
            <mxPoint x="1290.5" y="956" as="sourcePoint" />
            <mxPoint x="930.6666666666665" y="956" as="targetPoint" />
            <Array as="points">
              <mxPoint x="1105" y="956" />
            </Array>
            <mxPoint x="1" as="offset" />
          </mxGeometry>
        </mxCell>
        <mxCell id="swWhOMBi9cK1xBVYy2Jj-105" value="calculateBalance()" style="endArrow=classic;html=1;rounded=0;" parent="1" edge="1">
          <mxGeometry x="-0.1963" y="32" width="50" height="50" relative="1" as="geometry">
            <mxPoint x="933.5" y="981" as="sourcePoint" />
            <mxPoint x="930.6666666666665" y="996" as="targetPoint" />
            <Array as="points">
              <mxPoint x="970" y="981" />
              <mxPoint x="970" y="996" />
            </Array>
            <mxPoint x="-2" y="-11" as="offset" />
          </mxGeometry>
        </mxCell>
        <mxCell id="swWhOMBi9cK1xBVYy2Jj-106" value="Balance" style="endArrow=classic;html=1;rounded=0;dashed=1;" parent="1" edge="1">
          <mxGeometry x="-0.7505" y="7" width="50" height="50" relative="1" as="geometry">
            <mxPoint x="930.5" y="1048" as="sourcePoint" />
            <mxPoint x="1415.5" y="1048" as="targetPoint" />
            <Array as="points">
              <mxPoint x="1096" y="1048" />
            </Array>
            <mxPoint as="offset" />
          </mxGeometry>
        </mxCell>
        <mxCell id="swWhOMBi9cK1xBVYy2Jj-107" value="calculateBalance()" style="endArrow=classic;html=1;rounded=0;" parent="1" edge="1">
          <mxGeometry x="-0.2613" y="10" width="50" height="50" relative="1" as="geometry">
            <mxPoint x="787" y="1242" as="sourcePoint" />
            <mxPoint x="930.5" y="1242" as="targetPoint" />
            <Array as="points">
              <mxPoint x="915" y="1242" />
            </Array>
            <mxPoint as="offset" />
          </mxGeometry>
        </mxCell>
        <mxCell id="swWhOMBi9cK1xBVYy2Jj-111" value="" style="endArrow=none;dashed=1;html=1;rounded=0;entryX=0.999;entryY=0.68;entryDx=0;entryDy=0;entryPerimeter=0;strokeWidth=2;exitX=0.001;exitY=0.68;exitDx=0;exitDy=0;exitPerimeter=0;" parent="1" source="swWhOMBi9cK1xBVYy2Jj-110" target="swWhOMBi9cK1xBVYy2Jj-110" edge="1">
          <mxGeometry width="50" height="50" relative="1" as="geometry">
            <mxPoint x="720" y="1140" as="sourcePoint" />
            <mxPoint x="1679.0300000000002" y="1139.95" as="targetPoint" />
          </mxGeometry>
        </mxCell>
        <mxCell id="swWhOMBi9cK1xBVYy2Jj-112" value="doesn&#39;t&lt;br&gt;have&lt;br&gt;discount" style="text;html=1;align=center;verticalAlign=middle;resizable=0;points=[];autosize=1;strokeColor=none;fillColor=none;" parent="1" vertex="1">
          <mxGeometry x="660" y="1263" width="70" height="60" as="geometry" />
        </mxCell>
        <mxCell id="swWhOMBi9cK1xBVYy2Jj-113" value="has&lt;br&gt;discount" style="text;html=1;align=center;verticalAlign=middle;resizable=0;points=[];autosize=1;strokeColor=none;fillColor=none;" parent="1" vertex="1">
          <mxGeometry x="630" y="1023" width="70" height="40" as="geometry" />
        </mxCell>
        <mxCell id="swWhOMBi9cK1xBVYy2Jj-115" value="" style="endArrow=none;dashed=1;html=1;rounded=0;exitX=0;exitY=0.656;exitDx=0;exitDy=0;exitPerimeter=0;entryX=1;entryY=0.662;entryDx=0;entryDy=0;entryPerimeter=0;strokeColor=default;strokeWidth=2;" parent="1" source="swWhOMBi9cK1xBVYy2Jj-114" target="swWhOMBi9cK1xBVYy2Jj-114" edge="1">
          <mxGeometry width="50" height="50" relative="1" as="geometry">
            <mxPoint x="717.48" y="1035.6970000000001" as="sourcePoint" />
            <mxPoint x="1559.1599999999999" y="1040.437" as="targetPoint" />
          </mxGeometry>
        </mxCell>
        <mxCell id="swWhOMBi9cK1xBVYy2Jj-116" value="code&lt;br&gt;correct" style="text;html=1;align=center;verticalAlign=middle;resizable=0;points=[];autosize=1;strokeColor=none;fillColor=none;" parent="1" vertex="1">
          <mxGeometry x="715" y="972" width="60" height="40" as="geometry" />
        </mxCell>
        <mxCell id="swWhOMBi9cK1xBVYy2Jj-117" value="code&lt;br&gt;incorrect" style="text;html=1;align=center;verticalAlign=middle;resizable=0;points=[];autosize=1;strokeColor=none;fillColor=none;" parent="1" vertex="1">
          <mxGeometry x="715" y="1103" width="70" height="40" as="geometry" />
        </mxCell>
        <mxCell id="swWhOMBi9cK1xBVYy2Jj-118" value="User" style="text;html=1;align=center;verticalAlign=middle;resizable=0;points=[];autosize=1;strokeColor=none;fillColor=none;" parent="1" vertex="1">
          <mxGeometry x="505" y="289.1" width="50" height="30" as="geometry" />
        </mxCell>
        <mxCell id="IK8IRVJrMrATGc9QWltt-3" value="CouponPage" style="shape=umlLifeline;perimeter=lifelinePerimeter;whiteSpace=wrap;html=1;container=1;collapsible=0;recursiveResize=0;outlineConnect=0;" parent="1" vertex="1">
          <mxGeometry x="737.5" y="320" width="100" height="43" as="geometry" />
        </mxCell>
        <mxCell id="IK8IRVJrMrATGc9QWltt-4" value="User" style="shape=umlLifeline;perimeter=lifelinePerimeter;whiteSpace=wrap;html=1;container=1;collapsible=0;recursiveResize=0;outlineConnect=0;" parent="1" vertex="1">
          <mxGeometry x="881" y="319.1" width="100" height="43" as="geometry" />
        </mxCell>
        <mxCell id="IK8IRVJrMrATGc9QWltt-6" value="CouponCode" style="shape=umlLifeline;perimeter=lifelinePerimeter;whiteSpace=wrap;html=1;container=1;collapsible=0;recursiveResize=0;outlineConnect=0;" parent="1" vertex="1">
          <mxGeometry x="1241" y="320" width="100" height="43" as="geometry" />
        </mxCell>
        <mxCell id="IK8IRVJrMrATGc9QWltt-7" value="NewBalancePage" style="shape=umlLifeline;perimeter=lifelinePerimeter;whiteSpace=wrap;html=1;container=1;collapsible=0;recursiveResize=0;outlineConnect=0;" parent="1" vertex="1">
          <mxGeometry x="1366" y="320" width="100" height="43" as="geometry" />
        </mxCell>
        <mxCell id="IK8IRVJrMrATGc9QWltt-8" value="updateBalance()" style="endArrow=classic;html=1;rounded=0;strokeWidth=1;" parent="1" edge="1">
          <mxGeometry x="0.0242" y="-10" width="50" height="50" relative="1" as="geometry">
            <mxPoint x="1055.5" y="672" as="sourcePoint" />
            <mxPoint x="931.5" y="672" as="targetPoint" />
            <Array as="points">
              <mxPoint x="1002" y="672" />
            </Array>
            <mxPoint x="1" as="offset" />
          </mxGeometry>
        </mxCell>
        <mxCell id="IK8IRVJrMrATGc9QWltt-10" value="getBalance()" style="endArrow=classic;html=1;rounded=0;strokeWidth=1;" parent="1" edge="1">
          <mxGeometry y="40" width="50" height="50" relative="1" as="geometry">
            <mxPoint x="930.4473684210525" y="1009" as="sourcePoint" />
            <mxPoint x="930.4473684210525" y="1029" as="targetPoint" />
            <Array as="points">
              <mxPoint x="970" y="1009" />
              <mxPoint x="970" y="1029" />
            </Array>
            <mxPoint as="offset" />
          </mxGeometry>
        </mxCell>
        <mxCell id="IK8IRVJrMrATGc9QWltt-11" value="showNewBalance()" style="endArrow=classic;html=1;rounded=0;strokeWidth=1;" parent="1" edge="1">
          <mxGeometry x="-0.7548" y="10" width="50" height="50" relative="1" as="geometry">
            <mxPoint x="931.1153846153848" y="1074" as="sourcePoint" />
            <mxPoint x="1415.4473684210525" y="1074" as="targetPoint" />
            <Array as="points">
              <mxPoint x="1120" y="1074" />
            </Array>
            <mxPoint as="offset" />
          </mxGeometry>
        </mxCell>
        <mxCell id="IK8IRVJrMrATGc9QWltt-12" value="getBalance()" style="endArrow=classic;html=1;rounded=0;strokeWidth=1;" parent="1" edge="1">
          <mxGeometry y="40" width="50" height="50" relative="1" as="geometry">
            <mxPoint x="930.2500000000005" y="1261" as="sourcePoint" />
            <mxPoint x="930.2500000000005" y="1281" as="targetPoint" />
            <Array as="points">
              <mxPoint x="964" y="1261" />
              <mxPoint x="964" y="1281" />
            </Array>
            <mxPoint as="offset" />
          </mxGeometry>
        </mxCell>
        <mxCell id="IK8IRVJrMrATGc9QWltt-13" value="Balance" style="endArrow=classic;html=1;rounded=0;dashed=1;" parent="1" edge="1">
          <mxGeometry x="-0.7505" y="7" width="50" height="50" relative="1" as="geometry">
            <mxPoint x="930.6304347826085" y="1322" as="sourcePoint" />
            <mxPoint x="1415.5" y="1322" as="targetPoint" />
            <Array as="points">
              <mxPoint x="1100" y="1322" />
            </Array>
            <mxPoint as="offset" />
          </mxGeometry>
        </mxCell>
        <mxCell id="IK8IRVJrMrATGc9QWltt-14" value="showNewBalance()" style="endArrow=classic;html=1;rounded=0;strokeWidth=1;" parent="1" edge="1">
          <mxGeometry x="-0.7507" y="9" width="50" height="50" relative="1" as="geometry">
            <mxPoint x="929.5476190476188" y="1359" as="sourcePoint" />
            <mxPoint x="1414.4999999999995" y="1359" as="targetPoint" />
            <Array as="points">
              <mxPoint x="1139" y="1359" />
            </Array>
            <mxPoint as="offset" />
          </mxGeometry>
        </mxCell>
        <mxCell id="IK8IRVJrMrATGc9QWltt-15" value="InputCodePage" style="shape=umlLifeline;perimeter=lifelinePerimeter;whiteSpace=wrap;html=1;container=1;collapsible=0;recursiveResize=0;outlineConnect=0;" parent="1" vertex="1">
          <mxGeometry x="1126" y="320" width="100" height="43" as="geometry" />
        </mxCell>
        <mxCell id="IK8IRVJrMrATGc9QWltt-16" value="TopUpBalancePage" style="shape=umlLifeline;perimeter=lifelinePerimeter;whiteSpace=wrap;html=1;container=1;collapsible=0;recursiveResize=0;outlineConnect=0;" parent="1" vertex="1">
          <mxGeometry x="1000" y="319.1" width="110" height="43" as="geometry" />
        </mxCell>
        <mxCell id="IK8IRVJrMrATGc9QWltt-17" value="" style="html=1;points=[];perimeter=orthogonalPerimeter;" parent="1" vertex="1">
          <mxGeometry x="525" y="399.55" width="10" height="960.45" as="geometry" />
        </mxCell>
        <mxCell id="_GAzLhEZ1h1uAAD_o3hl-4" value="showDiscPage()" style="endArrow=classic;html=1;rounded=0;strokeWidth=1;" parent="1" edge="1">
          <mxGeometry x="-0.7597" y="-13" width="50" height="50" relative="1" as="geometry">
            <mxPoint x="1290.5" y="1159" as="sourcePoint" />
            <mxPoint x="787" y="1159" as="targetPoint" />
            <Array as="points">
              <mxPoint x="850" y="1159" />
              <mxPoint x="830" y="1159" />
            </Array>
            <mxPoint as="offset" />
          </mxGeometry>
        </mxCell>
        <mxCell id="bUkg7alTsQiRKQpdoPsh-2" value="showError()" style="endArrow=classic;html=1;rounded=0;" parent="1" edge="1">
          <mxGeometry x="-0.1021" y="30" width="50" height="50" relative="1" as="geometry">
            <mxPoint x="1290.810344827586" y="1113.9999999999998" as="sourcePoint" />
            <mxPoint x="1290.810344827586" y="1133.9999999999998" as="targetPoint" />
            <Array as="points">
              <mxPoint x="1320" y="1114" />
              <mxPoint x="1320" y="1134" />
            </Array>
            <mxPoint as="offset" />
          </mxGeometry>
        </mxCell>
        <mxCell id="jxYQ7D8uHrpj1AM3OjmC-4" value="checkBalance()" style="endArrow=classic;html=1;rounded=0;" edge="1" parent="1">
          <mxGeometry x="0.0833" y="40" width="50" height="50" relative="1" as="geometry">
            <mxPoint x="929.9615384615386" y="684.55" as="sourcePoint" />
            <mxPoint x="929.9615384615386" y="704.55" as="targetPoint" />
            <Array as="points">
              <mxPoint x="980" y="685" />
              <mxPoint x="980" y="705" />
            </Array>
            <mxPoint as="offset" />
          </mxGeometry>
        </mxCell>
      </root>
    </mxGraphModel>
  </diagram>
</mxfile>
